<svg width="24" height="24" viewBox="0 0 24 24" fill="none" xmlns="http://www.w3.org/2000/svg">
<path fill-rule="evenodd" clip-rule="evenodd" d="M22.2169 5.70743C22.4512 5.70743 22.6855 5.81157 22.8417 6.01983C22.9979 6.22809 23.05 6.48842 22.9458 6.72272L21.0454 12.9967C20.681 14.2202 19.5876 15.0273 18.312 15.0273H10.1116C8.86197 15.0273 7.74255 14.2202 7.37809 13.0227L4.98305 5.29091C4.85289 4.84834 4.46239 4.56198 3.9938 4.56198H1.78099C1.33843 4.56198 1 4.22355 1 3.78099C1 3.33843 1.33843 3 1.78099 3H3.9938C5.16528 3 6.15454 3.72892 6.49296 4.82231L6.77933 5.70743H22.2169ZM10.2937 15.9124C8.96601 15.9124 7.89866 17.0058 7.89866 18.3334C7.89866 19.6872 8.96601 20.7805 10.2937 20.7805C11.6214 20.7805 12.6887 19.6872 12.6887 18.3334C12.6887 16.9797 11.6214 15.9124 10.2937 15.9124ZM17.7653 15.9124C16.4376 15.9124 15.3702 17.0058 15.3702 18.3334C15.3702 19.6872 16.4376 20.7805 17.7653 20.7805C19.093 20.7805 20.1603 19.6872 20.1603 18.3334C20.1343 16.9797 19.0669 15.9124 17.7653 15.9124Z" fill="black"/>
</svg>
