<svg width="24" height="24" viewBox="0 0 24 24" fill="none" xmlns="http://www.w3.org/2000/svg">
<path fill-rule="evenodd" clip-rule="evenodd" d="M19.2028 6.47484C19.5933 6.08432 19.5933 5.45116 19.2028 5.06063L18.8492 4.70708C18.4587 4.31655 17.8255 4.31655 17.435 4.70708L12.6621 9.48C12.2716 9.87052 11.6384 9.87052 11.2479 9.48L6.47495 4.70708C6.08442 4.31655 5.45126 4.31655 5.06073 4.70708L4.70718 5.06063C4.31665 5.45116 4.31665 6.08432 4.70718 6.47484L9.4801 11.2478C9.87062 11.6383 9.87062 12.2715 9.4801 12.662L4.70708 17.435C4.31655 17.8255 4.31655 18.4587 4.70708 18.8492L5.06063 19.2028C5.45116 19.5933 6.08432 19.5933 6.47484 19.2028L11.2479 14.4297C11.6384 14.0392 12.2716 14.0392 12.6621 14.4297L17.4351 19.2028C17.8256 19.5933 18.4588 19.5933 18.8493 19.2028L19.2029 18.8492C19.5934 18.4587 19.5934 17.8255 19.2029 17.435L14.4298 12.662C14.0393 12.2715 14.0393 11.6383 14.4298 11.2478L19.2028 6.47484Z" fill="black"/>
</svg>
