<svg width="24" height="24" viewBox="0 0 24 24" fill="none" xmlns="http://www.w3.org/2000/svg">
<path fill-rule="evenodd" clip-rule="evenodd" d="M12 5.4808C14.1287 5.4808 14.3808 5.48888 15.2214 5.52714C15.9987 5.56253 16.4208 5.69207 16.7018 5.80094C17.0738 5.9452 17.3394 6.11754 17.6184 6.3958C17.8974 6.67405 18.0701 6.93898 18.2147 7.31013C18.3239 7.59037 18.4538 8.01142 18.4893 8.7867C18.5276 9.62525 18.5357 9.87673 18.5357 12C18.5357 14.1233 18.5276 14.3748 18.4893 15.2133C18.4538 15.9886 18.3239 16.4097 18.2147 16.6899C18.0701 17.0611 17.8974 17.326 17.6184 17.6043C17.3394 17.8825 17.0738 18.0549 16.7018 18.1991C16.4208 18.308 15.9987 18.4375 15.2214 18.4729C14.3809 18.5112 14.1288 18.5192 12 18.5192C9.87119 18.5192 9.61907 18.5112 8.77856 18.4729C8.00128 18.4375 7.57916 18.308 7.29824 18.1991C6.92612 18.0549 6.66052 17.8825 6.38157 17.6043C6.10261 17.326 5.92983 17.0611 5.78524 16.6899C5.67606 16.4097 5.54619 15.9886 5.51071 15.2133C5.47236 14.3748 5.46426 14.1233 5.46426 12C5.46426 9.87673 5.47236 9.62525 5.51071 8.78674C5.54619 8.01142 5.67606 7.59037 5.78524 7.31013C5.92983 6.93898 6.10261 6.67405 6.38157 6.3958C6.66052 6.11754 6.92612 5.9452 7.29824 5.80094C7.57916 5.69207 8.00128 5.56253 8.77853 5.52714C9.61919 5.48888 9.87131 5.4808 12 5.4808M12 4.04797C9.83486 4.04797 9.5634 4.05713 8.71309 4.09583C7.86451 4.13446 7.28502 4.26887 6.7779 4.46546C6.25365 4.66868 5.80907 4.94059 5.36587 5.38266C4.92267 5.82474 4.65008 6.26821 4.44634 6.79112C4.24926 7.29696 4.11451 7.87499 4.07578 8.72143C4.03698 9.56956 4.02783 9.84037 4.02783 12C4.02783 14.1597 4.03698 14.4305 4.07578 15.2786C4.11451 16.1251 4.24926 16.7031 4.44634 17.2089C4.65008 17.7318 4.92267 18.1753 5.36587 18.6174C5.80907 19.0595 6.25365 19.3314 6.7779 19.5346C7.28502 19.7312 7.86451 19.8656 8.71309 19.9042C9.5634 19.9429 9.83486 19.952 12 19.952C14.1651 19.952 14.4366 19.9429 15.2869 19.9042C16.1355 19.8656 16.715 19.7312 17.2221 19.5346C17.7463 19.3314 18.1909 19.0595 18.6341 18.6174C19.0773 18.1753 19.3499 17.7318 19.5536 17.2089C19.7507 16.7031 19.8855 16.1251 19.9242 15.2786C19.963 14.4305 19.9722 14.1597 19.9722 12C19.9722 9.84037 19.963 9.56956 19.9242 8.72143C19.8855 7.87499 19.7507 7.29696 19.5536 6.79112C19.3499 6.26821 19.0773 5.82474 18.6341 5.38266C18.1909 4.94059 17.7463 4.66868 17.2221 4.46546C16.715 4.26887 16.1355 4.13446 15.2869 4.09583C14.4366 4.05713 14.1651 4.04797 12 4.04797M12 14.6507C10.5324 14.6507 9.34258 13.4639 9.34258 12C9.34258 10.5361 10.5324 9.34933 12 9.34933C13.4676 9.34933 14.6574 10.5361 14.6574 12C14.6574 13.4639 13.4676 14.6507 12 14.6507V14.6507ZM12.0001 7.91653C9.73913 7.91653 7.90625 9.74479 7.90625 12C7.90625 14.2553 9.73913 16.0835 12.0001 16.0835C14.261 16.0835 16.0939 14.2553 16.0939 12C16.0939 9.74479 14.261 7.91653 12.0001 7.91653V7.91653ZM17.2122 7.7552C17.2122 8.28222 16.7839 8.70946 16.2556 8.70946C15.7272 8.70946 15.2989 8.28222 15.2989 7.7552C15.2989 7.22818 15.7272 6.80097 16.2556 6.80097C16.7839 6.80097 17.2122 7.22818 17.2122 7.7552" fill="black"/>
</svg>
