<svg width="24" height="24" viewBox="0 0 24 24" fill="none" xmlns="http://www.w3.org/2000/svg">
<path fill-rule="evenodd" clip-rule="evenodd" d="M17.0016 4C18.1053 4 19 4.8914 19 5.99641V16.2536C19 16.2997 18.9984 16.3455 18.9953 16.3908L18.9909 20.0737L14.771 18.25H6.99842C5.89472 18.25 5 17.3586 5 16.2536V5.99641C5 4.89382 5.89706 4 6.99842 4H17.0016ZM7.73797 14.0426C7.372 13.7062 7.14332 13.938 7.02238 14.092C6.90144 14.246 6.90593 14.5202 7.01486 14.7251C7.12378 14.9299 9.32942 16.2419 12.0738 16.2419C14.8182 16.2419 16.856 14.9572 17.0274 14.7251C17.1987 14.493 17.2565 14.3258 17.0274 14.1136C16.7982 13.9015 16.7084 13.9884 16.4113 14.1225C16.1142 14.2567 14.1665 15.4154 12.0315 15.3958C9.89648 15.3761 8.10393 14.3789 7.73797 14.0426Z" fill="black"/>
</svg>
